<?xml version="1.0" standalone="no"?>
<!DOCTYPE svg PUBLIC "-//W3C//DTD SVG 20010904//EN"
 "http://www.w3.org/TR/2001/REC-SVG-20010904/DTD/svg10.dtd">
<svg version="1.0" xmlns="http://www.w3.org/2000/svg"
 width="423.000000pt" height="423.000000pt" viewBox="0 0 423.000000 423.000000"
 preserveAspectRatio="xMidYMid meet">
<metadata>
Created by potrace 1.11, written by Peter Selinger 2001-2013
</metadata>
<g transform="translate(0.000000,423.000000) scale(0.100000,-0.100000)"
fill="#000000" stroke="none">
<path d="M1125 4173 c-114 -23 -189 -64 -269 -146 -114 -116 -159 -234 -160
-417 -1 -115 9 -157 70 -290 19 -41 34 -77 32 -80 -2 -2 -111 -5 -243 -5 -209
-1 -247 -3 -292 -20 -71 -26 -142 -90 -178 -161 l-30 -59 -3 -517 -2 -518 160
0 160 0 1 -820 c1 -451 2 -823 4 -827 1 -5 5 -21 10 -38 26 -94 115 -183 213
-211 52 -16 180 -17 1517 -17 803 0 1478 3 1499 7 106 18 202 100 243 208 14
38 16 133 17 868 l1 825 160 5 159 5 1 490 c0 380 -3 501 -13 540 -28 104
-119 199 -216 227 -25 7 -134 12 -282 12 l-241 1 43 90 c62 128 73 179 69 310
-2 86 -8 126 -28 184 -64 184 -205 314 -385 355 -95 22 -306 15 -401 -13 -236
-70 -450 -244 -580 -474 -29 -50 -51 -66 -51 -35 0 5 -25 48 -56 96 -138 211
-344 362 -577 423 -84 21 -253 23 -352 2z m359 -266 c82 -32 189 -102 254
-166 71 -68 122 -143 181 -266 56 -114 111 -232 111 -237 0 -5 -918 -3 -922 2
-23 30 -64 103 -104 185 -48 98 -49 102 -48 190 0 76 4 99 26 145 66 139 146
180 338 175 75 -1 109 -7 164 -28z m1607 18 c113 -30 182 -104 209 -227 26
-114 5 -193 -98 -375 l-47 -83 -42 -1 c-53 0 -126 0 -548 0 l-334 1 18 43 c53
122 135 284 168 335 77 115 226 238 342 280 117 42 237 52 332 27z m-1121
-1326 l0 -317 -795 -1 -795 -1 -1 22 c-4 95 -1 597 4 605 3 5 332 9 796 9
l791 0 0 -317z m1911 262 c0 -58 0 -534 -1 -562 0 -16 -65 -17 -795 -18 l-795
-1 0 318 0 318 795 0 795 0 1 -55z m-1911 -1696 l0 -795 -638 0 -637 0 1 793
c1 435 2 793 3 795 0 1 287 2 636 2 l635 0 0 -795z m1591 778 c1 -23 1 -1544
0 -1560 -1 -10 -135 -13 -636 -13 l-635 0 0 795 0 795 635 0 c598 0 635 -1
636 -17z"/>
</g>
</svg>
